<svg width="44" height="44" viewBox="0 0 44 44" fill="none" xmlns="http://www.w3.org/2000/svg">
<rect width="44" height="44" rx="22" fill="white"/>
<path d="M27.4929 11.877H17.4929C14.7315 11.877 12.4929 14.1155 12.4929 16.877V26.877C12.4929 29.6384 14.7315 31.877 17.4929 31.877H27.4929C30.2543 31.877 32.4929 29.6384 32.4929 26.877V16.877C32.4929 14.1155 30.2543 11.877 27.4929 11.877Z" stroke="black" stroke-width="2" stroke-linecap="round" stroke-linejoin="round"/>
<path d="M26.4929 21.2468C26.6163 22.079 26.4741 22.929 26.0866 23.6758C25.6991 24.4226 25.086 25.0282 24.3345 25.4064C23.583 25.7847 22.7313 25.9164 21.9007 25.7827C21.07 25.649 20.3026 25.2568 19.7077 24.6619C19.1128 24.067 18.7206 23.2996 18.5869 22.469C18.4533 21.6383 18.5849 20.7867 18.9632 20.0351C19.3415 19.2836 19.9471 18.6705 20.6939 18.283C21.4407 17.8955 22.2906 17.7534 23.1229 17.8768C23.9718 18.0027 24.7577 18.3982 25.3646 19.0051C25.9714 19.6119 26.367 20.3978 26.4929 21.2468Z" stroke="black" stroke-width="2" stroke-linecap="round" stroke-linejoin="round"/>
<path d="M27.9929 16.377H28.0029" stroke="black" stroke-width="2" stroke-linecap="round" stroke-linejoin="round"/>
</svg>
