<svg width="44" height="44" viewBox="0 0 44 44" fill="none" xmlns="http://www.w3.org/2000/svg">
<rect width="44" height="44" rx="22" fill="white"/>
<g clip-path="url(#clip0_40_109)">
<rect width="24" height="24" transform="translate(10.6985 9.85498)" fill="white"/>
<path d="M33.2384 16.275C33.1197 15.8004 32.8777 15.3656 32.5371 15.0144C32.1965 14.6632 31.7692 14.4082 31.2984 14.275C29.5784 13.855 22.6984 13.855 22.6984 13.855C22.6984 13.855 15.8184 13.855 14.0984 14.315C13.6277 14.4482 13.2004 14.7032 12.8598 15.0544C12.5192 15.4056 12.2772 15.8404 12.1584 16.315C11.8437 18.0605 11.6897 19.8313 11.6984 21.605C11.6872 23.392 11.8412 25.1763 12.1584 26.935C12.2894 27.3948 12.5368 27.8131 12.8766 28.1495C13.2164 28.4858 13.6373 28.7288 14.0984 28.855C15.8184 29.315 22.6984 29.315 22.6984 29.315C22.6984 29.315 29.5784 29.315 31.2984 28.855C31.7692 28.7218 32.1965 28.4667 32.5371 28.1156C32.8777 27.7644 33.1197 27.3296 33.2384 26.855C33.5508 25.1226 33.7048 23.3653 33.6984 21.605C33.7097 19.8179 33.5557 18.0337 33.2384 16.275Z" fill="black" stroke="white" stroke-width="2" stroke-linecap="round" stroke-linejoin="round"/>
<path d="M20.4485 24.875L26.1985 21.605L20.4485 18.335V24.875Z" fill="white" stroke="white" stroke-width="2" stroke-linecap="round" stroke-linejoin="round"/>
</g>
<defs>
<clipPath id="clip0_40_109">
<rect width="24" height="24" fill="white" transform="translate(10.6985 9.85498)"/>
</clipPath>
</defs>
</svg>
